<svg width="96" height="40" viewBox="0 0 96 40" fill="none" xmlns="http://www.w3.org/2000/svg">
<g clip-path="url(#clip0_130_53)">
<path d="M18.4402 0C8.61686 0 0.651855 7.96333 0.651855 17.7883C0.651855 27.6133 8.61686 35.5767 18.4419 35.5767C21.0535 35.5767 23.6385 35.0883 27.4385 35.06C30.8269 35.06 34.5502 36.25 38.6352 39.87C39.0485 40.2317 39.5919 39.7667 39.2302 39.3267C35.2219 34.2333 31.4969 33.2767 27.7752 32.45C23.2252 31.44 20.8985 28.9067 19.2685 26.0883C18.9585 25.52 18.8019 25.6233 18.7769 26.3483C18.7469 27.4133 18.8269 28.4783 19.0102 29.5283H18.4669C15.347 29.5257 12.3556 28.2851 10.1495 26.079C7.94339 23.8729 6.70284 20.8816 6.70019 17.7617C6.70372 14.6425 7.94471 11.6522 10.1508 9.44705C12.3568 7.24193 15.3477 6.00221 18.4669 6C20.1272 6.00087 21.7686 6.35292 23.2833 7.03303C24.7979 7.71314 26.1516 8.70593 27.2554 9.94622C28.3593 11.1865 29.1883 12.6463 29.688 14.2296C30.1878 15.813 30.347 17.4841 30.1552 19.1333C29.2752 18.9783 27.5935 18.9533 26.4052 19.0567C25.9652 19.1083 26.0169 19.315 26.3535 19.3683C30.2319 20.0917 32.8952 22.4967 33.5152 26.8667C33.5402 26.97 33.6702 26.995 33.7219 26.9167C35.3618 24.1546 36.2282 21.0022 36.2302 17.79C36.2302 7.96333 28.2669 0 18.4402 0ZM31.1802 25.1283C31.0789 25.1172 30.9766 25.136 30.8859 25.1825C30.7952 25.2291 30.7202 25.3012 30.6702 25.39C30.4635 25.7533 30.6202 26.45 31.0069 27.0717C31.3935 27.6917 31.7569 28.0017 32.0169 28.0017C32.2752 28.0017 32.5069 27.6917 32.4035 26.89C32.3535 26.45 32.0935 25.4433 31.4202 25.1833C31.3419 25.1483 31.2519 25.145 31.1802 25.1283V25.1283ZM27.4902 28.1067C27.1285 28.1067 26.8435 28.2333 26.6619 28.4667C26.1969 29.035 26.4035 30.07 27.1285 30.6917C27.4385 30.975 27.9052 31.13 28.3452 31.13C28.5448 31.1352 28.7431 31.0964 28.926 31.0163C29.1089 30.9362 29.2719 30.8169 29.4035 30.6667C29.8185 30.0967 29.5869 29.32 28.7835 28.6483C28.3702 28.2867 27.9052 28.1067 27.4902 28.1067V28.1067Z" fill="#F79A2E"/>
</g>
<path d="M54.8164 19.1875L59.5742 22.9609L57.0195 25.1172L52.3438 21.3438L54.8164 19.1875ZM59.7734 13.1289V13.8203C59.7734 15.125 59.5898 16.2969 59.2227 17.3359C58.8633 18.3672 58.3477 19.25 57.6758 19.9844C57.0117 20.7109 56.2266 21.2695 55.3203 21.6602C54.4141 22.043 53.4141 22.2344 52.3203 22.2344C51.2188 22.2344 50.2109 22.043 49.2969 21.6602C48.3906 21.2695 47.6016 20.7109 46.9297 19.9844C46.2656 19.25 45.75 18.3672 45.3828 17.3359C45.0234 16.2969 44.8438 15.125 44.8438 13.8203V13.1289C44.8438 11.8242 45.0234 10.6523 45.3828 9.61328C45.75 8.57422 46.2617 7.69141 46.918 6.96484C47.582 6.23047 48.3672 5.67188 49.2734 5.28906C50.1875 4.89844 51.1953 4.70312 52.2969 4.70312C53.3906 4.70312 54.3906 4.89844 55.2969 5.28906C56.2109 5.67188 57 6.23047 57.6641 6.96484C58.3359 7.69141 58.8555 8.57422 59.2227 9.61328C59.5898 10.6523 59.7734 11.8242 59.7734 13.1289ZM55.5898 13.8203V13.1055C55.5898 12.2617 55.5156 11.5195 55.3672 10.8789C55.2266 10.2305 55.0156 9.6875 54.7344 9.25C54.4531 8.8125 54.1055 8.48438 53.6914 8.26562C53.2852 8.03906 52.8203 7.92578 52.2969 7.92578C51.75 7.92578 51.2734 8.03906 50.8672 8.26562C50.4609 8.48438 50.1211 8.8125 49.8477 9.25C49.5742 9.6875 49.3672 10.2305 49.2266 10.8789C49.0938 11.5195 49.0273 12.2617 49.0273 13.1055V13.8203C49.0273 14.6562 49.0938 15.3984 49.2266 16.0469C49.3672 16.6875 49.5742 17.2305 49.8477 17.6758C50.1289 18.1211 50.4727 18.457 50.8789 18.6836C51.293 18.9102 51.7734 19.0234 52.3203 19.0234C52.8438 19.0234 53.3086 18.9102 53.7148 18.6836C54.1211 18.457 54.4609 18.1211 54.7344 17.6758C55.0156 17.2305 55.2266 16.6875 55.3672 16.0469C55.5156 15.3984 55.5898 14.6562 55.5898 13.8203ZM66.2422 4.9375V22H62.1406V4.9375H66.2422ZM73.0742 20.4531L76.4727 4.9375H78.5L79.6016 6.26172L75.9805 22H73.7422L73.0742 20.4531ZM72.1719 4.9375L75.043 20.5703L74.3047 22H71.7148L68.0938 4.9375H72.1719ZM81.4648 20.4883L84.3125 4.9375H88.3789L84.7578 22H82.1797L81.4648 20.4883ZM79.9648 4.9375L83.4453 20.5469L82.7422 22H80.5039L76.8008 6.23828L77.9492 4.9375H79.9648ZM94.3672 4.9375V22H90.2656V4.9375H94.3672Z" fill="#F79A2E"/>
<path d="M50.0981 30.2798H48.4502L48.4414 29.269H49.7773C50.0176 29.269 50.2095 29.2427 50.353 29.1899C50.4966 29.1343 50.6006 29.0537 50.665 28.9482C50.7324 28.8428 50.7661 28.7109 50.7661 28.5527C50.7661 28.3711 50.7324 28.2246 50.665 28.1133C50.5977 28.002 50.4907 27.9214 50.3442 27.8716C50.2007 27.8188 50.0146 27.7925 49.7861 27.7925H49.0303V33H47.4878V26.6016H49.7861C50.1816 26.6016 50.5347 26.6382 50.8452 26.7114C51.1558 26.7817 51.4194 26.8901 51.6362 27.0366C51.856 27.1831 52.0229 27.3677 52.1372 27.5903C52.2515 27.8101 52.3086 28.0693 52.3086 28.3682C52.3086 28.6289 52.2529 28.8735 52.1416 29.1021C52.0303 29.3306 51.8442 29.5166 51.5835 29.6602C51.3257 29.8008 50.9727 29.874 50.5244 29.8799L50.0981 30.2798ZM50.0366 33H48.0767L48.604 31.8135H50.0366C50.2476 31.8135 50.416 31.7812 50.542 31.7168C50.6709 31.6494 50.7632 31.5615 50.8188 31.4531C50.8774 31.3418 50.9067 31.2188 50.9067 31.084C50.9067 30.9199 50.8789 30.7778 50.8232 30.6577C50.7705 30.5376 50.6855 30.4453 50.5684 30.3809C50.4512 30.3135 50.2944 30.2798 50.0981 30.2798H48.8018L48.8105 29.269H50.3618L50.7222 29.6733C51.1499 29.6558 51.4883 29.7158 51.7373 29.8535C51.9893 29.9912 52.1694 30.1729 52.2778 30.3984C52.3862 30.624 52.4404 30.8599 52.4404 31.106C52.4404 31.5249 52.3496 31.875 52.168 32.1562C51.9893 32.4375 51.7212 32.6484 51.3638 32.7891C51.0063 32.9297 50.564 33 50.0366 33ZM55.4154 31.9453C55.553 31.9453 55.6702 31.9204 55.7669 31.8706C55.8665 31.8179 55.9412 31.7446 55.991 31.6509C56.0438 31.5542 56.0687 31.4385 56.0657 31.3037H57.4588C57.4617 31.6611 57.3738 31.9746 57.1951 32.2441C57.0194 32.5107 56.7791 32.7188 56.4744 32.8682C56.1727 33.0146 55.8314 33.0879 55.4505 33.0879C55.0784 33.0879 54.7532 33.0278 54.4749 32.9077C54.1966 32.7847 53.9637 32.6147 53.7762 32.3979C53.5916 32.1782 53.4525 31.9219 53.3587 31.6289C53.2679 31.3359 53.2225 31.0181 53.2225 30.6753V30.5742C53.2225 30.2314 53.2679 29.9136 53.3587 29.6206C53.4525 29.3247 53.5916 29.0684 53.7762 28.8516C53.9637 28.6318 54.1951 28.4619 54.4705 28.3418C54.7488 28.2188 55.0726 28.1572 55.4417 28.1572C55.8372 28.1572 56.1859 28.2319 56.4876 28.3813C56.7923 28.5308 57.0311 28.7476 57.2039 29.0317C57.3768 29.3159 57.4617 29.6602 57.4588 30.0645H56.0657C56.0687 29.9209 56.0467 29.792 55.9998 29.6777C55.9529 29.5635 55.8797 29.4727 55.7801 29.4053C55.6834 29.335 55.5589 29.2998 55.4066 29.2998C55.2542 29.2998 55.1312 29.3335 55.0374 29.4009C54.9437 29.4683 54.8719 29.562 54.8221 29.6821C54.7752 29.7993 54.743 29.9341 54.7254 30.0864C54.7108 30.2388 54.7034 30.4014 54.7034 30.5742V30.6753C54.7034 30.8511 54.7108 31.0166 54.7254 31.1719C54.743 31.3242 54.7767 31.459 54.8265 31.5762C54.8763 31.6904 54.9481 31.7812 55.0418 31.8486C55.1356 31.9131 55.2601 31.9453 55.4154 31.9453ZM60.5744 33.0879C60.1876 33.0879 59.8419 33.0278 59.5372 32.9077C59.2326 32.7847 58.9747 32.6162 58.7638 32.4023C58.5558 32.1885 58.3961 31.9424 58.2848 31.6641C58.1764 31.3857 58.1222 31.0913 58.1222 30.7808V30.6138C58.1222 30.2651 58.1705 29.9429 58.2672 29.647C58.3639 29.3481 58.5075 29.0874 58.6979 28.8647C58.8883 28.6421 59.1271 28.4692 59.4142 28.3462C59.7013 28.2202 60.0353 28.1572 60.4162 28.1572C60.7531 28.1572 61.0548 28.2114 61.3214 28.3198C61.588 28.4282 61.8136 28.5835 61.9982 28.7856C62.1857 28.9878 62.3278 29.2324 62.4245 29.5195C62.5241 29.8066 62.5739 30.1289 62.5739 30.4863V31.0884H58.6891V30.1611H61.1281V30.0469C61.131 29.8887 61.1032 29.7539 61.0446 29.6426C60.9889 29.5312 60.9069 29.4463 60.7985 29.3877C60.6901 29.3291 60.5582 29.2998 60.403 29.2998C60.2418 29.2998 60.1085 29.335 60.0031 29.4053C59.9005 29.4756 59.82 29.5723 59.7614 29.6953C59.7057 29.8154 59.6662 29.9546 59.6427 30.1128C59.6193 30.271 59.6076 30.438 59.6076 30.6138V30.7808C59.6076 30.9565 59.631 31.1162 59.6779 31.2598C59.7277 31.4033 59.798 31.5264 59.8888 31.6289C59.9826 31.7285 60.0939 31.8062 60.2228 31.8618C60.3546 31.9175 60.504 31.9453 60.671 31.9453C60.8732 31.9453 61.0724 31.9072 61.2687 31.8311C61.465 31.7549 61.6334 31.6289 61.7741 31.4531L62.4464 32.2529C62.3497 32.3906 62.2121 32.5239 62.0333 32.6528C61.8576 32.7817 61.6466 32.8872 61.4005 32.9692C61.1544 33.0483 60.879 33.0879 60.5744 33.0879ZM58.3859 26.9971C58.3859 26.833 58.4518 26.6953 58.5836 26.584C58.7155 26.4697 58.8707 26.4126 59.0495 26.4126C59.2311 26.4126 59.3864 26.4697 59.5153 26.584C59.6471 26.6953 59.713 26.833 59.713 26.9971C59.713 27.1611 59.6471 27.3003 59.5153 27.4146C59.3864 27.5259 59.2311 27.5815 59.0495 27.5815C58.8707 27.5815 58.7155 27.5259 58.5836 27.4146C58.4518 27.3003 58.3859 27.1611 58.3859 26.9971ZM60.6666 26.9971C60.6666 26.833 60.7326 26.6953 60.8644 26.584C60.9962 26.4697 61.1515 26.4126 61.3302 26.4126C61.5119 26.4126 61.6671 26.4697 61.796 26.584C61.9279 26.6953 61.9938 26.833 61.9938 26.9971C61.9938 27.1611 61.9279 27.3003 61.796 27.4146C61.6671 27.5259 61.5119 27.5815 61.3302 27.5815C61.1515 27.5815 60.9962 27.5259 60.8644 27.4146C60.7326 27.3003 60.6666 27.1611 60.6666 26.9971ZM69.0027 28.2451V29.3877H66.7527V28.2451H69.0027ZM67.2317 28.2451V33H65.7508V28.2451H67.2317ZM70.0266 28.2451V33H68.5413V28.2451H70.0266ZM72.505 29.1592V34.8281H71.024V28.2451H72.4039L72.505 29.1592ZM75.4229 30.5654V30.6577C75.4229 31.0034 75.3834 31.3242 75.3043 31.6201C75.2252 31.916 75.108 32.1738 74.9527 32.3936C74.7975 32.6133 74.6041 32.7847 74.3727 32.9077C74.1441 33.0278 73.879 33.0879 73.5772 33.0879C73.2931 33.0879 73.0484 33.0249 72.8434 32.8989C72.6383 32.7729 72.4669 32.5986 72.3292 32.376C72.1915 32.1533 72.0802 31.8984 71.9952 31.6113C71.9103 31.3242 71.8429 31.021 71.7931 30.7017V30.583C71.8429 30.2402 71.9103 29.9224 71.9952 29.6294C72.0802 29.3335 72.1915 29.0757 72.3292 28.856C72.4669 28.6362 72.6368 28.4648 72.839 28.3418C73.044 28.2188 73.2887 28.1572 73.5729 28.1572C73.8746 28.1572 74.1397 28.2144 74.3683 28.3286C74.5997 28.4429 74.7931 28.6069 74.9483 28.8208C75.1065 29.0317 75.2252 29.2852 75.3043 29.5811C75.3834 29.877 75.4229 30.2051 75.4229 30.5654ZM73.942 30.6577V30.5654C73.942 30.3809 73.9288 30.2124 73.9024 30.0601C73.8761 29.9048 73.8336 29.77 73.775 29.6558C73.7193 29.5415 73.6446 29.4536 73.5509 29.3921C73.4571 29.3306 73.3414 29.2998 73.2037 29.2998C73.0455 29.2998 72.9122 29.3247 72.8038 29.3745C72.6983 29.4214 72.6134 29.4946 72.5489 29.5942C72.4874 29.6909 72.4435 29.8125 72.4171 29.959C72.3937 30.1025 72.3834 30.271 72.3863 30.4644V30.8247C72.3805 31.0474 72.4024 31.2437 72.4522 31.4136C72.5021 31.5806 72.5885 31.7109 72.7115 31.8047C72.8346 31.8984 73.0016 31.9453 73.2125 31.9453C73.3531 31.9453 73.4703 31.9131 73.5641 31.8486C73.6578 31.7812 73.7325 31.689 73.7882 31.5718C73.8438 31.4517 73.8834 31.314 73.9068 31.1587C73.9303 31.0034 73.942 30.8364 73.942 30.6577ZM76.0776 30.6709V30.5786C76.0776 30.23 76.1274 29.9092 76.227 29.6162C76.3266 29.3203 76.4731 29.064 76.6664 28.8472C76.8598 28.6304 77.0986 28.4619 77.3827 28.3418C77.6669 28.2188 77.995 28.1572 78.3671 28.1572C78.7421 28.1572 79.0717 28.2188 79.3559 28.3418C79.643 28.4619 79.8832 28.6304 80.0766 28.8472C80.2699 29.064 80.4164 29.3203 80.516 29.6162C80.6156 29.9092 80.6654 30.23 80.6654 30.5786V30.6709C80.6654 31.0166 80.6156 31.3374 80.516 31.6333C80.4164 31.9263 80.2699 32.1826 80.0766 32.4023C79.8832 32.6191 79.6445 32.7876 79.3603 32.9077C79.0761 33.0278 78.748 33.0879 78.3759 33.0879C78.0038 33.0879 77.6742 33.0278 77.3871 32.9077C77.1 32.7876 76.8598 32.6191 76.6664 32.4023C76.4731 32.1826 76.3266 31.9263 76.227 31.6333C76.1274 31.3374 76.0776 31.0166 76.0776 30.6709ZM77.5585 30.5786V30.6709C77.5585 30.8496 77.5717 31.0166 77.5981 31.1719C77.6244 31.3271 77.6684 31.4634 77.7299 31.5806C77.7914 31.6948 77.8749 31.7842 77.9804 31.8486C78.0859 31.9131 78.2177 31.9453 78.3759 31.9453C78.5312 31.9453 78.6601 31.9131 78.7626 31.8486C78.8681 31.7842 78.9516 31.6948 79.0131 31.5806C79.0746 31.4634 79.1186 31.3271 79.1449 31.1719C79.1713 31.0166 79.1845 30.8496 79.1845 30.6709V30.5786C79.1845 30.4058 79.1713 30.2432 79.1449 30.0908C79.1186 29.9355 79.0746 29.7993 79.0131 29.6821C78.9516 29.562 78.8681 29.4683 78.7626 29.4009C78.6571 29.3335 78.5253 29.2998 78.3671 29.2998C78.2118 29.2998 78.0815 29.3335 77.976 29.4009C77.8735 29.4683 77.7914 29.562 77.7299 29.6821C77.6684 29.7993 77.6244 29.9355 77.5981 30.0908C77.5717 30.2432 77.5585 30.4058 77.5585 30.5786ZM89.2478 31.8662L89.1599 34.4106H87.7624V33H87.2746V31.8662H89.2478ZM81.4827 28.2451H82.9636V31.8574H84.0798V28.2451H85.5652V31.8574H86.677V28.2451H88.1623V33H81.4827V28.2451ZM92.3458 33.0879C91.959 33.0879 91.6133 33.0278 91.3087 32.9077C91.004 32.7847 90.7462 32.6162 90.5352 32.4023C90.3272 32.1885 90.1675 31.9424 90.0562 31.6641C89.9478 31.3857 89.8936 31.0913 89.8936 30.7808V30.6138C89.8936 30.2651 89.942 29.9429 90.0386 29.647C90.1353 29.3481 90.2789 29.0874 90.4693 28.8647C90.6597 28.6421 90.8985 28.4692 91.1856 28.3462C91.4727 28.2202 91.8067 28.1572 92.1876 28.1572C92.5245 28.1572 92.8262 28.2114 93.0928 28.3198C93.3594 28.4282 93.585 28.5835 93.7696 28.7856C93.9571 28.9878 94.0992 29.2324 94.1959 29.5195C94.2955 29.8066 94.3453 30.1289 94.3453 30.4863V31.0884H90.4605V30.1611H92.8995V30.0469C92.9024 29.8887 92.8746 29.7539 92.816 29.6426C92.7603 29.5312 92.6783 29.4463 92.5699 29.3877C92.4615 29.3291 92.3296 29.2998 92.1744 29.2998C92.0132 29.2998 91.8799 29.335 91.7745 29.4053C91.6719 29.4756 91.5914 29.5723 91.5328 29.6953C91.4771 29.8154 91.4376 29.9546 91.4141 30.1128C91.3907 30.271 91.379 30.438 91.379 30.6138V30.7808C91.379 30.9565 91.4024 31.1162 91.4493 31.2598C91.4991 31.4033 91.5694 31.5264 91.6602 31.6289C91.754 31.7285 91.8653 31.8062 91.9942 31.8618C92.126 31.9175 92.2754 31.9453 92.4424 31.9453C92.6446 31.9453 92.8438 31.9072 93.0401 31.8311C93.2364 31.7549 93.4048 31.6289 93.5455 31.4531L94.2178 32.2529C94.1212 32.3906 93.9835 32.5239 93.8047 32.6528C93.629 32.7817 93.418 32.8872 93.1719 32.9692C92.9258 33.0483 92.6504 33.0879 92.3458 33.0879Z" fill="#F79A2E"/>
<defs>
<clipPath id="clip0_130_53">
<rect width="40" height="40" fill="white"/>
</clipPath>
</defs>
</svg>
