<svg width="90" height="90" viewBox="0 0 90 90" fill="none" xmlns="http://www.w3.org/2000/svg">
<path d="M65.4188 32.3297C63.3242 31.5725 61.1125 31.1907 58.8853 31.2019C51.6938 31.2019 46.6116 34.8356 46.5806 40.0359C46.5216 43.8581 50.1834 46.0125 52.9509 47.3006C55.7944 48.6197 56.745 49.4409 56.7309 50.6109C56.7169 52.4138 54.4584 53.2181 52.38 53.2181C49.4916 53.2181 47.925 52.8244 45.5091 51.8119L44.6119 51.3872L43.5881 57.3947C45.3459 58.1119 48.4959 58.7419 51.7472 58.8009C59.4084 58.8009 64.4034 55.1981 64.4597 49.6434C64.5188 46.5975 62.5584 44.2856 58.3819 42.3788C55.8619 41.1497 54.2841 40.3116 54.2841 39.0516C54.2841 37.9378 55.6313 36.7678 58.4438 36.7678C60.3102 36.7211 62.1658 37.065 63.8916 37.7775L64.5806 38.0841L65.5903 32.2988L65.4188 32.3297ZM84.1134 31.6997H78.4884C76.7306 31.6997 75.4256 32.1694 74.6494 33.9131L63.8381 58.4184H71.4853L73.0266 54.405L82.3556 54.4191C82.5891 55.3556 83.2472 58.4156 83.2472 58.4156H90L84.1134 31.6997ZM36.225 31.4803H43.5066L38.9503 58.2103H31.6688L36.225 31.4663V31.4803ZM17.7103 46.2009L18.4556 49.9219L25.5881 31.6997H33.3084L21.8222 58.3734H14.1356L7.83563 35.7863C7.78736 35.5986 7.70137 35.4228 7.5829 35.2695C7.46442 35.1162 7.31596 34.9887 7.14656 34.8947C4.88358 33.7177 2.48296 32.8268 0 32.2425L0.0871875 31.6828H11.835C13.4184 31.7419 14.7066 32.2425 15.1453 33.9413L17.7103 46.215V46.2009ZM75.1022 48.9403L78.0187 41.4563C77.9737 41.5266 78.6178 39.9178 78.9834 38.9053L79.4813 41.2031L81.1688 48.9234H75.1022V48.9403Z" fill="#262D36"/>
</svg>
