<svg width="105" height="31" viewBox="0 0 105 31" fill="none" xmlns="http://www.w3.org/2000/svg">
<g clip-path="url(#clip0_132_59)">
<path d="M11.3674 3H7.69229C4.01701 3 0.854707 5.73506 0.854707 11.0341C0.854707 14.1966 2.39307 16.5897 5.04268 17.7863L0.0853905 26.6752C-0.085508 26.9317 0.0853905 27.188 0.341875 27.188H2.64955C2.82045 27.188 2.99135 27.1026 3.0768 26.9317L7.60684 18.2137H9.23065V26.9317C9.23065 27.0171 9.31623 27.188 9.48713 27.188H11.5385C11.7094 27.188 11.7948 27.1026 11.7948 26.9317V3.3418C11.7094 3.08545 11.6239 3 11.3674 3ZM9.23065 16.1625H7.86318C1.96582 16.1625 2.39307 5.05133 7.60684 5.05133H9.31623V16.1625H9.23065V16.1625Z" fill="#F79A2E"/>
<path d="M23.6749 11.0341H21.6237C21.4528 11.0341 21.3672 11.1196 21.3672 11.2906V17.4443H17.6065V11.2906C17.6065 11.1197 17.5211 11.0341 17.3502 11.0341H15.3843C15.2134 11.0341 15.1279 11.1196 15.1279 11.2906V26.9316C15.1279 27.1025 15.2134 27.188 15.3843 27.188H17.4356C17.6065 27.188 17.6921 27.1025 17.6921 26.9316V19.4102H21.4527V26.9316C21.4527 27.1025 21.5381 27.188 21.7092 27.188H23.7604C23.9313 27.188 24.0168 27.1025 24.0168 26.9316V11.2906C23.9314 11.1197 23.8459 11.0341 23.675 11.0341H23.6749ZM69.8288 25.0514C69.8288 24.9659 69.7434 24.9659 69.6579 24.9659C68.8032 24.9659 63.5895 27.4446 63.5895 19.2394C63.5895 15.6497 64.957 10.607 68.2049 13.5984C68.2903 13.6839 68.3758 13.6839 68.4612 13.6839C68.5467 13.6839 68.6321 13.5984 68.7177 13.4275L69.5723 11.9745C69.6578 11.889 69.6578 11.8036 69.6578 11.7181C69.6578 11.5472 69.4869 11.4616 69.316 11.3762C63.675 8.55569 60.769 13.7693 60.769 19.8377C60.769 27.701 66.4955 28.8121 69.7432 26.4189C69.9141 26.3335 69.9141 26.1625 69.9141 26.0772L69.8288 25.0514V25.0514ZM55.8117 18.2992L59.7434 11.2053C59.8288 11.1197 59.7434 10.9488 59.6579 10.9488H57.692C57.0937 10.9488 56.9229 11.1197 56.7518 11.5471C56.5809 11.9745 53.675 18.0429 53.333 18.2992V11.2052C53.333 11.1196 53.2476 10.9487 53.1621 10.9487H51.0254C50.9399 10.9487 50.8545 11.0341 50.8545 11.2052V26.9316C50.8545 27.0171 50.9399 27.188 51.0254 27.188H53.1621C53.333 27.188 53.333 27.1025 53.333 26.9316V18.8119C53.5895 18.9828 57.1792 26.4188 57.2646 26.6752C57.4355 27.017 57.7775 27.188 58.2049 27.188H60.3416C60.5125 27.188 60.5125 27.1025 60.4271 26.9316L55.8117 18.2992V18.2992ZM37.0937 25.1369H36.6663C36.1536 25.1369 36.068 24.966 36.068 24.5385V11.2052C36.068 11.0343 35.9826 10.9487 35.8971 10.9487H29.3159C29.145 10.9487 29.0596 11.0341 29.0596 11.2052C29.0596 14.7948 29.145 20.7778 26.7518 25.1368H26.0682C25.8973 25.1368 25.8117 25.2222 25.8117 25.3931V30.094C25.8117 30.2649 25.9826 30.3504 26.0682 30.3504H27.6065C27.9483 30.3504 28.1194 30.094 28.1194 29.8376V27.188H35.0425V30.094C35.0425 30.1795 35.128 30.3504 35.2989 30.3504H37.0083C37.1792 30.3504 37.4356 30.1795 37.4356 29.8376V25.3931C37.3502 25.2222 37.2647 25.1368 37.0938 25.1368L37.0937 25.1369ZM33.504 25.1369H28.7175C30.0851 22.9147 31.3671 19.325 31.3671 13.0001H33.5039V25.1369H33.504ZM43.7604 10.607C40.2562 10.607 38.6322 14.9659 38.6322 19.7521C38.6322 27.6155 44.1023 28.8121 47.8629 26.5044C48.0338 26.4189 48.0338 26.3335 48.0338 26.2481L47.7775 25.1369C47.7775 25.0514 47.692 24.966 47.5211 24.966C46.1535 24.966 41.3673 27.359 41.3673 19.5814C43.0767 19.7523 43.0767 19.7523 48.2048 19.7523C48.1194 15.8206 47.6921 10.607 43.7604 10.607ZM41.4529 17.7861C41.4529 11.5468 45.5554 10.3503 45.5554 17.6152C43.7605 17.6152 42.9913 17.6152 41.4529 17.7861Z" fill="#F79A2E"/>
</g>
<path d="M99 9H80.25V8.25L96.75 6.93V8.25H99V6C99 4.34999 97.6635 3.19199 96.0315 3.42449L80.97 5.5755C79.3365 5.8095 78 7.35 78 9V24C78 24.7956 78.3161 25.5587 78.8787 26.1213C79.4413 26.6839 80.2044 27 81 27H99C99.7956 27 100.559 26.6839 101.121 26.1213C101.684 25.5587 102 24.7956 102 24V12C102 11.2043 101.684 10.4413 101.121 9.87868C100.559 9.31607 99.7956 9 99 9V9ZM96.75 19.509C96.4544 19.5089 96.1618 19.4506 95.8887 19.3374C95.6157 19.2242 95.3676 19.0583 95.1587 18.8492C94.9498 18.6402 94.7841 18.392 94.671 18.1189C94.558 17.8458 94.4999 17.5531 94.5 17.2575C94.5001 16.9619 94.5584 16.6693 94.6716 16.3962C94.7848 16.1232 94.9507 15.8751 95.1598 15.6662C95.3688 15.4573 95.617 15.2916 95.8901 15.1785C96.1632 15.0655 96.4559 15.0074 96.7515 15.0075C97.3484 15.0077 97.9208 15.245 98.3428 15.6673C98.7648 16.0895 99.0017 16.6621 99.0015 17.259C99.0013 17.8559 98.764 18.4283 98.3417 18.8503C97.9195 19.2723 97.3469 19.5092 96.75 19.509Z" fill="#F79A2E"/>
<defs>
<clipPath id="clip0_132_59">
<rect width="70" height="27.4805" fill="white" transform="translate(0 3)"/>
</clipPath>
</defs>
</svg>
